<svg width="324" height="600" xmlns="http://www.w3.org/2000/svg" preserveAspectRatio="xMidYMid meet">

 <g>
  <title>background</title>
  <rect fill="none" id="canvas_background" height="602" width="326" y="-1" x="-1"/>
 </g>
 <g>
  <title>Layer 1</title>
  <g stroke="null" id="svg_1" fill="#000000" transform="translate(0,700) scale(0.10000000149011612,-0.10000000149011612) ">
   <path stroke="null" id="svg_2" d="m1650.766728,4669.799756c0.97847,-1220.128439 0,-2217.962237 -0.97847,-2217.962237c-1.956939,0 -20.547864,14.952554 -42.074198,32.89562c-151.662808,132.579316 -443.246787,156.503403 -723.08913,59.810218c-165.361384,-57.816544 -355.184512,-171.455957 -478.471698,-288.085882c-256.359069,-242.231381 -339.528996,-544.27298 -211.349462,-768.561296c67.514411,-116.629924 247.552842,-200.364229 445.203727,-207.342088c457.923833,-14.952554 986.297487,338.924567 1101.756915,737.659351c16.633985,55.82287 17.612455,129.588805 17.612455,998.830634c0.97847,517.358382 1.956939,940.017254 3.913879,940.017254c1.956939,0 67.514411,-44.857663 146.770459,-98.686859c318.002662,-219.304131 572.404792,-456.551328 733.852297,-682.833318c69.471351,-99.683696 168.296793,-297.057414 168.296793,-338.924567c0,-33.892457 -25.440213,-193.38637 -58.708184,-373.81386c-11.741637,-61.803892 -18.590925,-114.63625 -16.633985,-116.629924c2.935409,-3.987348 12.720106,18.939902 90.019215,208.338925c26.418683,64.794402 32.289501,73.765935 36.20338,51.835522c8.806228,-42.863989 -3.913879,-320.981501 -16.633985,-388.766415c-1.956939,-10.965207 -6.849288,-46.851337 -9.784697,-79.746957c-10.763167,-113.639413 -46.966547,-341.915077 -88.062276,-558.228698c-19.569395,-105.664718 -18.590925,-108.655229 10.763167,-44.857663c100.782382,218.307294 202.543234,532.310937 253.42366,778.529666c60.665123,295.06374 68.492881,621.029426 18.590925,820.396818c-8.806228,32.89562 -12.720106,68.78175 -9.784697,80.743794c18.590925,74.762772 37.18185,262.168121 40.117259,403.718969c3.913879,158.497077 -8.806228,301.044762 -33.267971,386.772741c-6.849288,24.920924 -4.892349,68.78175 10.763167,169.462283c27.397152,185.411675 30.332562,495.427969 4.892349,620.032589c-45.988077,222.294642 -130.136474,402.722132 -270.057645,581.155948c-24.461743,31.898783 -210.370992,208.338925 -411.935756,390.760088c-412.914226,374.810697 -472.600879,441.598773 -571.426322,640.966165c-61.643593,123.607783 -116.437898,317.99099 -125.244125,438.608263c-12.720106,182.421164 -15.655516,-275.127001 -14.677046,-2176.095084zm491.191804,730.681492c154.598217,-121.614109 411.935756,-383.78223 497.062623,-506.393176c79.256048,-114.63625 165.361384,-287.089045 191.780067,-387.769578c11.741637,-40.870315 18.590925,-75.759609 17.612455,-76.756446c-1.956939,-1.993674 -29.354092,30.901946 -60.665123,72.769098c-40.117259,51.835522 -175.146082,180.42749 -430.526681,412.690502c-204.500173,184.414838 -375.732376,342.911914 -381.603194,350.88661c-4.892349,7.974696 -34.246441,46.851337 -64.579002,87.721653c-91.976155,123.607783 -170.253733,289.082718 -148.727399,312.009969c7.827758,6.977859 236.789675,-153.512892 379.646255,-265.158631zm19.569395,-872.23234c127.201065,-102.674207 326.80889,-298.054251 405.086468,-396.74111c138.942702,-173.449631 245.595902,-372.817023 245.595902,-459.541839l0,-48.845011l-76.320639,81.740631c-41.095729,44.857663 -214.284871,205.348414 -383.560134,356.867632c-169.275263,151.519218 -331.701238,301.044762 -360.07686,331.946708c-121.330246,133.576153 -260.272948,383.78223 -229.940386,414.684175c7.827758,7.974696 276.906933,-180.42749 399.21565,-280.111186z"/>
  </g>
 </g>
</svg>