<?xml version="1.0" standalone="no"?>
<!DOCTYPE svg PUBLIC "-//W3C//DTD SVG 20010904//EN"
 "http://www.w3.org/TR/2001/REC-SVG-20010904/DTD/svg10.dtd">
<svg version="1.0" xmlns="http://www.w3.org/2000/svg"
 width="512.000000pt" height="512.000000pt" viewBox="0 0 512.000000 512.000000"
 preserveAspectRatio="xMidYMid meet">

<g transform="translate(0.000000,512.000000) scale(0.100000,-0.100000)"
fill="#000000" stroke="none">
<path d="M2559 5105 c-137 -33 -253 -143 -299 -281 -20 -59 -22 -81 -17 -178
7 -134 24 -202 82 -322 139 -288 408 -464 733 -481 62 -3 111 -10 110 -14 -2
-4 -66 -151 -143 -326 l-140 -318 -70 -71 c-95 -96 -150 -118 -295 -119 -91 0
-112 3 -158 25 l-54 25 46 32 c199 141 219 456 39 637 -227 229 -618 123 -709
-192 -20 -68 -14 -224 11 -322 52 -197 184 -381 354 -494 137 -91 268 -134
439 -143 61 -3 112 -7 112 -7 0 -1 -65 -148 -144 -326 -83 -185 -159 -343
-178 -366 -84 -106 -209 -160 -351 -152 -55 3 -99 12 -134 27 l-52 23 49 39
c92 73 149 180 157 299 16 226 -134 414 -360 452 -171 28 -358 -67 -437 -222
-52 -103 -63 -219 -34 -358 83 -404 434 -692 841 -692 56 0 74 -3 70 -12 -3
-7 -131 -295 -285 -641 l-280 -627 234 2 235 3 1030 2310 c567 1271 1037 2325
1044 2343 l14 32 -233 0 -233 0 -28 -62 c-82 -185 -115 -231 -210 -293 -102
-66 -235 -83 -359 -45 -36 11 -67 24 -70 29 -3 4 17 24 43 43 53 40 113 124
137 190 84 239 -74 511 -325 558 -69 13 -113 12 -182 -5z"/>
</g>
</svg>
