<svg width="67" height="125" xmlns="http://www.w3.org/2000/svg">

 <g>
  <title>background</title>
  <rect fill="none" id="canvas_background" height="127" width="69" y="-1" x="-1"/>
 </g>
 <g>
  <title>Layer 1</title>
  <g id="svg_1">
   <g id="svg_2">
    <g id="svg_3" transform="matrix(1.281114,0,0,1.326683,-15.974798,-3.74288) ">
     <path id="svg_4" fill-rule="evenodd" fill="none" clip-rule="evenodd" d="m-18.442811,121.995562c0,-44.383 0.001,-88.765 -0.016,-133.148c0,-0.564 0.148,-0.628 0.657,-0.628c56.906,0.014 113.812,0.014 170.718,0c0.51,0 0.657,0.064 0.657,0.628c-0.018,44.383 -0.017,88.765 -0.017,133.148c-0.307,-0.015 -0.614,-0.043 -0.922,-0.043c-56.719,-0.002 -113.437,-0.002 -170.155,0c-0.307,0 -0.615,0.028 -0.922,0.043z"/>
     <path id="svg_5" fill-rule="evenodd" clip-rule="evenodd" d="m39.126189,39.516562c0,-11.218 0.003,-22.437 -0.008,-33.656c0,-0.986 0.008,-1.823 1.39,-1.758c0.919,0.043 1.315,0.366 1.41,1.297c0.422,4.159 1.062,8.261 3.218,11.964c1.701,2.92 4.061,5.293 6.299,7.77c2.184,2.418 4.496,4.724 6.509,7.289c4.287,5.459 6.937,11.512 6.416,18.612c-0.481,6.602 -2.633,12.724 -5.608,18.586c-0.502,0.991 -1.051,1.964 -1.598,2.933c-0.159,0.283 -0.334,0.599 -0.587,0.777c-0.389,0.271 -0.905,0.308 -1.284,0.041c-0.402,-0.283 -0.076,-0.682 0.071,-0.998c1.646,-3.512 3.26,-7.035 4.384,-10.761c2.145,-7.108 2.169,-14.106 -1.497,-20.753c-3.262,-5.91 -8.166,-9.852 -14.806,-11.471c-1.48,-0.362 -1.622,-0.236 -1.622,1.338c-0.004,8.706 -0.003,17.41 -0.003,26.114c0,7.093 0,14.185 0,21.277c0,8.762 -4.124,14.457 -12.52,17.253c-3.312,1.101 -6.658,1.607 -10.041,0.281c-4.613,-1.814 -6.488,-5.979 -4.783,-10.647c1.208,-3.308 3.565,-5.722 6.321,-7.752c4.238,-3.121 8.902,-4.817 14.262,-3.896c1.103,0.188 2.197,0.42 3.162,1.012c0.76,0.466 0.917,0.157 0.914,-0.57c-0.01,-2.723 0,-5.445 0,-8.168c0.003,-8.704 0.003,-17.409 0.001,-26.114z"/>
     <path id="svg_6" fill-rule="evenodd" fill="none" clip-rule="evenodd" d="m82.682189,66.632562c4.135,2.358 7.896,4.884 10.444,8.865c1.297,2.027 2.049,4.186 1.922,6.611c-0.037,0.696 0.07,1.403 -0.139,2.208c-0.479,-0.632 -0.888,-1.19 -1.316,-1.734c-1.633,-2.071 -3.618,-3.788 -5.553,-5.562c-2.603,-2.385 -4.392,-5.267 -5.138,-8.749c-0.104,-0.488 -0.135,-0.993 -0.22,-1.639z"/>
     <path id="svg_7" fill-rule="evenodd" fill="none" clip-rule="evenodd" d="m-4.921811,41.796562c-1.284,0.02 -1.634,-0.384 -1.468,-1.492c0.07,-0.47 0.237,-0.906 0.517,-1.275c2.196,-2.902 5.044,-4.883 8.523,-5.939c0.638,-0.194 1.371,-0.278 1.837,0.334s0.161,1.281 -0.165,1.863c-1.097,1.961 -2.806,3.319 -4.613,4.562c-1.223,0.842 -2.536,1.515 -3.999,1.846c-0.256,0.058 -0.52,0.083 -0.632,0.101z"/>
    </g>
   </g>
  </g>
 </g>
</svg>