<svg id="ey5gME8v7bY1" xmlns="http://www.w3.org/2000/svg" xmlns:xlink="http://www.w3.org/1999/xlink"
    viewBox="0 0 100 125" shape-rendering="geometricPrecision" text-rendering="geometricPrecision"
    project-id="c55d79eaf65141649315a39dafcd5032" export-id="a3ef66ebd6b6462a8a455af24abe75c9" cached="false">
    <g transform="translate(10.754341 0.000011)">
        <g transform="translate(0 0.000001)">
            <g transform="matrix(1.281114 0 0 1.326683-15.974798-3.74288)">
                <path
                    d="M-3.868,121.896c0-44.383.001-88.765-.016-133.148c0-.564.148-.628.657-.628c56.906.014,113.812.014,170.718,0c.51,0,.657.064.657.628-.018,44.383-.017,88.765-.017,133.148-.307-.015-.614-.043-.922-.043-56.719-.002-113.437-.002-170.155,0-.307,0-.615.028-.922.043Z"
                    clip-rule="evenodd" fill="none" fill-rule="evenodd" />
                <path
                    d="M53.701,39.417c0-11.218.003-22.437-.008-33.656c0-.986.008-1.823,1.39-1.758.919.043,1.315.366,1.41,1.297.422,4.159,1.062,8.261,3.218,11.964c1.701,2.92,4.061,5.293,6.299,7.77c2.184,2.418,4.496,4.724,6.509,7.289c4.287,5.459,6.937,11.512,6.416,18.612-.481,6.602-2.633,12.724-5.608,18.586-.502.991-1.051,1.964-1.598,2.933-.159.283-.334.599-.587.777-.389.271-.905.308-1.284.041-.402-.283-.076-.682.071-.998c1.646-3.512,3.26-7.035,4.384-10.761c2.145-7.108,2.169-14.106-1.497-20.753-3.262-5.91-8.166-9.852-14.806-11.471-1.48-.362-1.622-.236-1.622,1.338-.004,8.706-.003,17.41-.003,26.114c0,7.093,0,14.185,0,21.277c0,8.762-4.124,14.457-12.52,17.253-3.312,1.101-6.658,1.607-10.041.281-4.613-1.814-6.488-5.979-4.783-10.647c1.208-3.308,3.565-5.722,6.321-7.752c4.238-3.121,8.902-4.817,14.262-3.896c1.103.188,2.197.42,3.162,1.012.76.466.917.157.914-.57-.01-2.723,0-5.445,0-8.168.003-8.704.003-17.409.001-26.114Z"
                    clip-rule="evenodd" fill-rule="evenodd" />
                <path
                    d="M97.257,66.533c4.135,2.358,7.896,4.884,10.444,8.865c1.297,2.027,2.049,4.186,1.922,6.611-.037.696.07,1.403-.139,2.208-.479-.632-.888-1.19-1.316-1.734-1.633-2.071-3.618-3.788-5.553-5.562-2.603-2.385-4.392-5.267-5.138-8.749-.104-.488-.135-.993-.22-1.639Z"
                    clip-rule="evenodd" fill="none" fill-rule="evenodd" />
                <path
                    d="M9.653,41.697c-1.284.02-1.634-.384-1.468-1.492.07-.47.237-.906.517-1.275c2.196-2.902,5.044-4.883,8.523-5.939.638-.194,1.371-.278,1.837.334s.161,1.281-.165,1.863c-1.097,1.961-2.806,3.319-4.613,4.562-1.223.842-2.536,1.515-3.999,1.846-.256.058-.52.083-.632.101Z"
                    clip-rule="evenodd" fill="none" fill-rule="evenodd" />
            </g>
        </g>
    </g>
</svg>