<svg width="67" height="125" xmlns="http://www.w3.org/2000/svg">

 <g>
  <title>background</title>
  <rect fill="none" id="canvas_background" height="127" width="69" y="-1" x="-1"/>
 </g>
 <g>
  <title>Layer 1</title>
  <g id="svg_1">
   <g id="svg_2">
    <g id="svg_3" transform="matrix(1.281114,0,0,1.326683,-15.974798,-3.74288) ">
     <path id="svg_5" fill-rule="evenodd" clip-rule="evenodd" d="m39.126189,39.516562c0,-11.218 0.003,-22.437 -0.008,-33.656c0,-0.986 0.008,-1.823 1.39,-1.758c0.919,0.043 1.315,0.366 1.41,1.297c0.422,4.159 1.062,8.261 3.218,11.964c1.701,2.92 4.061,5.293 6.299,7.77c2.184,2.418 4.496,4.724 6.509,7.289c4.287,5.459 6.937,11.512 6.416,18.612c-0.481,6.602 -2.633,12.724 -5.608,18.586c-0.502,0.991 -1.051,1.964 -1.598,2.933c-0.159,0.283 -0.334,0.599 -0.587,0.777c-0.389,0.271 -0.905,0.308 -1.284,0.041c-0.402,-0.283 -0.076,-0.682 0.071,-0.998c1.646,-3.512 3.26,-7.035 4.384,-10.761c2.145,-7.108 2.169,-14.106 -1.497,-20.753c-3.262,-5.91 -8.166,-9.852 -14.806,-11.471c-1.48,-0.362 -1.622,-0.236 -1.622,1.338c-0.004,8.706 -0.003,17.41 -0.003,26.114c0,7.093 0,14.185 0,21.277c0,8.762 -4.124,14.457 -12.52,17.253c-3.312,1.101 -6.658,1.607 -10.041,0.281c-4.613,-1.814 -6.488,-5.979 -4.783,-10.647c1.208,-3.308 3.565,-5.722 6.321,-7.752c4.238,-3.121 8.902,-4.817 14.262,-3.896c1.103,0.188 2.197,0.42 3.162,1.012c0.76,0.466 0.917,0.157 0.914,-0.57c-0.01,-2.723 0,-5.445 0,-8.168c0.003,-8.704 0.003,-17.409 0.001,-26.114z"/>
   </g>
   </g>
  </g>
 </g>
</svg>