<svg width="416" height="1109" xmlns="http://www.w3.org/2000/svg">

 <g>
  <title>background</title>
  <rect fill="none" id="canvas_background" height="1111" width="418" y="-1" x="-1"/>
 </g>
 <g>
  <title>Layer 1</title>
  <path id="svg_1" d="m360.716576,881.515717c0,-28.947 0.118,-53.945 -0.051,-78.947c-0.062,-9.984 -1.023,-19.964 -1.08,-29.943c-0.989,-173.621 -1.799,-580.857 -3.082,-754.466c-0.078,-10.26 3.308,-14.802 16.244,-13.642c5.112,0.455 10.399,0.478 15.496,-0.019c13.724,-1.327 17.801,3.547 17.678,14.415c-0.332,33.132 0.76,66.279 0.85,99.412c0.388,146.803 0.545,527.226 0.939,674.024c0.151,54.707 -1.12,109.482 1.541,164.117c3.796,77.662 -59.03,124.555 -130.659,139.742c-78.351,16.605 -152.69,9.127 -214.313,-36.744c-73.424,-54.662 -66.044,-138.104 13.926,-187.092c74.352,-45.55 185.82,-46.759 261.954,-2.838c5.528,3.191 11.024,6.425 20.557,11.981zm-148.91,181.157c39.945,-0.785 76.438,-9.295 107.435,-30.744c49.496,-34.25 49.429,-87.498 -0.315,-121.469c-60.02,-40.967 -157.184,-40.428 -216.54,1.202c-46.78,32.81 -47.235,85.129 -0.968,118.553c31.503,22.758 69.165,31.757 110.388,32.458z" fill="#000" clip-rule="evenodd" fill-rule="evenodd"/>
 </g>
</svg>