<?xml version="1.0" encoding="utf-8"?>
<!--Designed by Vexels.com - 2017 All Rights Reserved - https://vexels.com/terms-and-conditions/-->

<svg version="1.1" id="Capa_1" xmlns="http://www.w3.org/2000/svg" xmlns:xlink="http://www.w3.org/1999/xlink" x="0px" y="0px"
	 width="1200px" height="1200px" viewBox="0 0 1200 1200" enable-background="new 0 0 1200 1200" xml:space="preserve">
<path fill-rule="evenodd" clip-rule="evenodd" fill="#000" d="M749.288,927.23c0-28.947,0.118-53.945-0.051-78.947
	c-0.062-9.984-1.023-19.964-1.08-29.943c-0.989-173.621-1.799-580.857-3.082-754.466c-0.078-10.26,3.308-14.802,16.244-13.642
	c5.112,0.455,10.399,0.478,15.496-0.019c13.724-1.327,17.801,3.547,17.678,14.415c-0.332,33.132,0.76,66.279,0.85,99.412
	c0.388,146.803,0.545,527.226,0.939,674.024c0.151,54.707-1.12,109.482,1.541,164.117c3.796,77.662-59.03,124.555-130.659,139.742
	c-78.351,16.605-152.69,9.127-214.313-36.744c-73.424-54.662-66.044-138.104,13.926-187.092
	c74.352-45.55,185.82-46.759,261.954-2.838C734.259,918.44,739.755,921.674,749.288,927.23z M600.378,1108.387
	c39.945-0.785,76.438-9.295,107.435-30.744c49.496-34.25,49.429-87.498-0.315-121.469c-60.02-40.967-157.184-40.428-216.54,1.202
	c-46.78,32.81-47.235,85.129-0.968,118.553C521.493,1098.687,559.155,1107.686,600.378,1108.387z"/>
</svg>
