<svg width="195.00000000000003" height="520" xmlns="http://www.w3.org/2000/svg">

 <g>
  <title>background</title>
  <rect fill="none" id="canvas_background" height="522" width="197" y="-1" x="-1"/>
 </g>
 <g>
  <title>Layer 1</title>
  <g id="svg_1" transform="matrix(1.263022,0,0,0.646936,-64.194686,154.662688) ">
   <g id="svg_2" transform="matrix(1.791,0,0,1.791,0.000001,-0.000001) ">
    <g id="svg_3" transform="matrix(0.766044,0,0,0.716633,33.603738,85.000963) ">
     <path id="svg_4" d="m104.783414,-297.994877l-10.02624,-0.00004l0,480.66245c-6.239,-3.13564 -21.729,-12.1203 -28.923,-12.1203c-17.458,0 -35.266,9.52667 -48.857,26.13602c-25.344,30.96902 -28.516,77.48303 -7.072,103.68993c9.232,11.28146 22.016,17.49408 35.995,17.49408c17.458,0 37.44798,-7.23291 48.857,-26.13603c10.02624,-16.61204 10.02625,-40.67325 10.02624,-59.59791c0,-2.37226 0,2.63584 0,0l0,-18.31631c0,-118.31348 0,-229.61586 0,-250.95274l0,-260.85915z"/>
    </g>
   </g>
  </g>
 </g>
</svg>