<svg id="e3criO916UQ1" xmlns="http://www.w3.org/2000/svg" xmlns:xlink="http://www.w3.org/1999/xlink" viewBox="0 0 520 520" shape-rendering="geometricPrecision" text-rendering="geometricPrecision" project-id="c3c6d91735c64a219dd30ecca747d314" export-id="d732b7cbae4a48fea5929ee8ba600a55" cached="false"><g transform="matrix(1.263022 0 0 0.646936-64.194686 154.662688)"><g transform="matrix(1.791 0 0 1.791 0.000001-.000001)"><g transform="matrix(.766044 0 0 0.716633 33.603738 85.000963)"><path d="M194.011239,-231.507525l-10.02624-.000037-.000001,480.662451c-6.239-3.135639-21.728998-12.120303-28.922998-12.120303-17.458,0-35.266,9.526672-48.857,26.136025-25.344,30.969015-28.516,77.483027-7.072,103.689928c9.232,11.281456,22.016,17.494078,35.995,17.494078c17.458,0,37.447977-7.232912,48.857-26.136026c10.026239-16.612038,10.026249-40.673247,10.02624-59.59791-.000001-2.372263-.000001,2.635843-.000001,0l.000001-18.316315c-.000001-118.313475,0-229.615857,0-250.952735l-.000001-260.859156Z" transform="translate(-2.665074-73.369257)"/></g></g></g></svg>
