<svg width="300" height="570" xmlns="http://www.w3.org/2000/svg" preserveAspectRatio="xMidYMid meet">
 <g>
  <title>background</title>
  <rect fill="none" id="canvas_background" height="634.070485" width="334.668676" y="-1" x="-1"/>
 </g>

 <g>
  <title>Layer 1</title>
  <g stroke="null" id="svg_1" fill="#000000" transform="translate(0,700) scale(0.10000000149011612,-0.10000000149011612) ">
   <path stroke="null" id="svg_2" d="m1524.933396,4703.133096c0.97847,-1220.12844 0,-2217.96224 -0.97847,-2217.96224c-1.95694,0 -20.54787,14.95255 -42.0742,32.89562c-151.66281,132.57931 -443.24679,156.5034 -723.08913,59.81022c-165.36138,-57.81655 -355.18451,-171.45596 -478.4717,-288.08588c-256.35907,-242.23139 -339.52899,-544.27298 -211.34946,-768.5613c67.51441,-116.62992 247.55284,-200.36423 445.20373,-207.34209c457.92383,-14.95255 986.29748,338.92457 1101.75691,737.65935c16.63399,55.82287 17.61246,129.58881 17.61246,998.83064c0.97847,517.35838 1.95694,940.01725 3.91388,940.01725c1.95693,0 67.51441,-44.85766 146.77045,-98.68686c318.00267,-219.30413 572.4048,-456.55133 733.8523,-682.83332c69.47135,-99.68369 168.29679,-297.05741 168.29679,-338.92456c0,-33.89246 -25.44021,-193.38637 -58.70818,-373.81386c-11.74164,-61.8039 -18.59092,-114.63625 -16.63398,-116.62993c2.93541,-3.98735 12.7201,18.9399 90.01921,208.33893c26.41868,64.7944 32.2895,73.76593 36.20338,51.83552c8.80623,-42.86399 -3.91388,-320.9815 -16.63398,-388.76642c-1.95694,-10.9652 -6.84929,-46.85133 -9.7847,-79.74695c-10.76317,-113.63942 -46.96655,-341.91508 -88.06228,-558.2287c-19.56939,-105.66472 -18.59092,-108.65523 10.76317,-44.85766c100.78238,218.30729 202.54323,532.31093 253.42366,778.52966c60.66512,295.06374 68.49288,621.02943 18.59092,820.39682c-8.80622,32.89562 -12.7201,68.78175 -9.78469,80.74379c18.59092,74.76278 37.18185,262.16813 40.11726,403.71897c3.91388,158.49708 -8.80623,301.04477 -33.26797,386.77274c-6.84929,24.92093 -4.89235,68.78175 10.76316,169.46229c27.39715,185.41167 30.33256,495.42797 4.89235,620.03259c-45.98808,222.29464 -130.13647,402.72213 -270.05764,581.15594c-24.46175,31.89879 -210.371,208.33893 -411.93576,390.76009c-412.91423,374.8107 -472.60088,441.59878 -571.42632,640.96617c-61.64359,123.60778 -116.4379,317.99099 -125.24413,438.60826c-12.7201,182.42116 -15.65551,-275.127 -14.67704,-2176.09508zm491.1918,730.68149c154.59822,-121.61411 411.93576,-383.78223 497.06262,-506.39318c79.25605,-114.63625 165.36139,-287.08904 191.78007,-387.76958c11.74164,-40.87031 18.59093,-75.7596 17.61246,-76.75644c-1.95694,-1.99368 -29.3541,30.90194 -60.66513,72.7691c-40.11726,51.83552 -175.14608,180.42749 -430.52668,412.6905c-204.50017,184.41484 -375.73237,342.91191 -381.60319,350.88661c-4.89235,7.97469 -34.24644,46.85133 -64.579,87.72165c-91.97616,123.60778 -170.25374,289.08272 -148.7274,312.00997c7.82776,6.97786 236.78967,-153.51289 379.64625,-265.15863zm19.5694,-872.23234c127.20106,-102.67421 326.80889,-298.05425 405.08647,-396.74111c138.9427,-173.44963 245.5959,-372.81703 245.5959,-459.54184l0,-48.84501l-76.32064,81.74063c-41.09573,44.85766 -214.28487,205.34841 -383.56014,356.86763c-169.27526,151.51922 -331.70123,301.04476 -360.07686,331.94671c-121.33024,133.57615 -260.27294,383.78223 -229.94038,414.68417c7.82776,7.9747 276.90693,-180.42749 399.21565,-280.11118z"/>
  </g>
 </g>
</svg>