<svg width="34" height="92" xmlns="http://www.w3.org/2000/svg">
 <g>
  <title>background</title>
  <rect x="-1" y="-1" width="36" height="94" id="canvas_background" fill="none"/>
 </g>

 <g>
  <title>Layer 1</title>
  <g id="svg_1" stroke="null">
   <rect width="32.888889" height="93.666665" fill="none" y="-1" x="-1" id="svg_2" stroke="null"/>
  </g>
  <g id="svg_3">
   <g id="svg_4">
    <g id="svg_5">
     <g transform="matrix(1.28111,0,0,1.32668,-15.9748,-3.74288) " id="svg_6">
      <path d="m12.469499,2.63691c0.919,0.043 1.315,0.366 1.41,1.297c0.422,4.159 1.062,8.261 3.218,11.964c1.701,2.92 4.061,5.293 6.299,7.77c2.184,2.418 4.496,4.724 6.509,7.289c4.287,5.459 6.937,11.512 6.416,18.612c-0.481,6.602 -2.633,12.724 -5.608,18.586c-0.502,0.991 -1.051,1.964 -1.598,2.933c-0.159,0.283 -0.334,0.599 -0.587,0.777c-0.389,0.271 -0.905,0.308 -1.284,0.041c-0.402,-0.283 -0.076,-0.682 0.071,-0.998c1.646,-3.512 3.26,-7.035 4.384,-10.761c2.145,-7.108 2.169,-14.106 -1.497,-20.753c-3.262,-5.91 -8.166,-9.852 -14.806,-11.471c-1.48,-0.362 -2.927,-0.30906 -2.927,1.26494" clip-rule="evenodd" fill-rule="evenodd" id="svg_7"/>
     </g>
    </g>
   </g>
  </g>
 </g>
</svg>