<svg width="123.591" height="200.591" xmlns="http://www.w3.org/2000/svg">

 <g>
  <title>background</title>
  <rect fill="none" id="canvas_background" height="202.591" width="125.591" y="-1" x="-1"/>
 </g>
 <g>
  <title>Layer 1</title>
  <path id="svg_1" d="m1.489,0l0,200l7.934,0l10.074,0.513c0.259,0.013 1.664,0.078 3.923,0.078c0,0 0,0 0,0c2.869,0 7.2,-0.112 12.385,-0.591l2.48,0l0,-0.25c10.395,-1.146 23.588,-3.79 35.404,-9.743c23.816,-11.999 39.938,-29.411 45.395,-49.029c4.161,-14.956 1.859,-30.019 -6.658,-43.559c-9.208,-14.642 -23.872,-22.38 -42.405,-22.38c-10.955,0 -22.064,2.806 -31.736,6.353l0,-81.392l-36.796,0zm68.533,109.77c8.036,0 11,2.95 13.005,6.139c3.257,5.179 4.106,10.334 2.597,15.761c-2.722,9.783 -13.025,19.996 -27.561,27.32c-6.186,3.116 -13.417,4.821 -19.777,5.756l0,-45.558c9.927,-5 22.033,-9.418 31.736,-9.418z"/>
 </g>
</svg>