<svg width="220" height="518" xmlns="http://www.w3.org/2000/svg">
 <style type="text/css">.st0{fill:#000000;}</style>

 <g>
  <title>background</title>
  <rect fill="none" id="canvas_background" height="520" width="222" y="-1" x="-1"/>
 </g>
 <g>
  <title>Layer 1</title>
  <g id="svg_1">
   <path id="svg_2" d="m200.091,372.859c-14.588,-11.448 -44.397,-43.31 -65.554,-102.28c-20.802,-57.964 25.648,-94.268 50.571,-113.841c6.486,-5.102 7.92,-11.556 -0.692,-20.531c-8.596,-8.966 -114.073,-126.179 -114.073,-126.179c-13.03,-17.143 -30.816,-7.13 -20.604,7.302c120.65,170.544 -35.068,196.638 -35.068,196.638s16.854,43.837 97.392,115.062c-84.28,-21.915 -138.6,40.178 -97.392,104.108c41.2,63.923 120.798,77.62 127.358,79.45c7.261,2.02 17.794,-3.659 6.561,-10.953c-25.566,-16.623 -78.667,-60.732 -53.381,-92.24c33.716,-42.008 83.348,-23.744 96.452,-17.358c22.779,11.11 30.913,-1.517 8.43,-19.178z" class="st0"/>
  </g>
 </g>
</svg>