<svg width="350" height="497" xmlns="http://www.w3.org/2000/svg">
 <style type="text/css">.st0{fill:#000000;}</style>

 <g>
  <title>background</title>
  <rect fill="none" id="canvas_background" height="499" width="352" y="-1" x="-1"/>
 </g>
 <g>
  <title>Layer 1</title>
  <g id="svg_1">
   <path id="svg_2" d="m336.562,156.34c5.999,-1.291 10.281,-6.582 10.281,-12.724l0,-56.756c0,-3.927 -1.775,-7.649 -4.834,-10.124c-3.058,-2.466 -7.07,-3.425 -10.912,-2.6l-51.621,11.093l0,-71.345c0,-3.856 -1.713,-7.515 -4.672,-9.99c-2.964,-2.475 -6.869,-3.507 -10.662,-2.816l-38.686,7.013c-6.192,1.121 -10.694,6.51 -10.694,12.805l0,78.242l-80.658,17.333l0,-69.354c0,-3.856 -1.713,-7.514 -4.672,-9.99c-2.958,-2.475 -6.864,-3.506 -10.662,-2.816l-38.69,7.004c-6.192,1.12 -10.693,6.511 -10.693,12.806l0,76.25l-57.948,12.456c-5.999,1.282 -10.281,6.59 -10.281,12.724l0,56.756c0,3.927 1.776,7.649 4.834,10.124c3.062,2.466 7.07,3.426 10.917,2.601l52.478,-11.281l0,108.39l-57.948,12.456c-5.999,1.282 -10.281,6.582 -10.281,12.715l0,56.737c0,3.928 1.776,7.649 4.834,10.125c3.062,2.466 7.07,3.425 10.917,2.6l52.478,-11.281l0,76.492c0,3.856 1.712,7.515 4.672,9.99c2.959,2.476 6.864,3.507 10.662,2.816l38.686,-6.995c6.192,-1.12 10.698,-6.51 10.698,-12.805l0,-83.397l80.658,-17.334l0,74.502c0,3.865 1.712,7.524 4.672,9.99c2.96,2.475 6.865,3.506 10.662,2.815l38.686,-7.004c6.192,-1.121 10.694,-6.51 10.694,-12.805l0,-81.408l57.087,-12.267c5.999,-1.291 10.281,-6.582 10.281,-12.724l0,-56.729c0,-3.927 -1.775,-7.649 -4.834,-10.124c-3.058,-2.466 -7.07,-3.426 -10.912,-2.6l-51.621,11.093l0,-108.39l57.084,-12.269zm-121.801,134.566l-80.658,17.326l0,-108.382l80.658,-17.334l0,108.39z" class="st0"/>
   <path id="svg_3" d="m282.421,-16.964c0.022,0 0.04,0 0.062,-0.009l0.167,-0.027l-0.229,0.036z" class="st0"/>
  </g>
 </g>
</svg>