<svg width="299" height="596" xmlns="http://www.w3.org/2000/svg" stroke="null" style="vector-effect: non-scaling-stroke;" preserveAspectRatio="xMidYMid meet">
 <g stroke="null">
  <title stroke="null">background</title>
  <rect stroke="null" x="-1" y="-1" width="301" height="598" id="canvas_background" fill="none"/>
 </g>

 <g stroke="null">
  <title stroke="null">Layer 1</title>
  <g stroke="null" transform="translate(0,512) scale(0.10000000149011612,-0.10000000149011612) " fill="#000000" id="svg_1">
   <path stroke="null" d="m1477.50859,5108.999014c-137,-38.358857 -253,-166.221716 -299,-326.631483c-20,-68.580988 -22,-94.153559 -17,-206.905353c7,-155.760209 24,-234.802703 82,-374.289458c139,-334.768211 408,-539.348784 733,-559.109408c62,-3.487169 111,-11.623896 110,-16.273455c-2,-4.649558 -66,-175.520833 -143,-378.939016l-140,-369.639899l-70,-82.529663c-95,-111.589404 -150,-137.161975 -295,-138.324365c-91,0 -112,3.487169 -158,29.059741l-54,29.059741l46,37.196468c199,163.896937 219,530.049667 39,740.442188c-227,266.187223 -618,142.973923 -709,-223.178807c-20,-79.042494 -14,-260.375275 11,-374.289458c52,-228.990755 184,-442.870446 354,-574.220473c137,-105.777455 268,-155.760209 439,-166.221716c61,-3.487169 112,-8.136727 112,-8.136727c0,-1.16239 -65,-172.033664 -144,-378.939016c-83,-215.04208 -159,-398.69964 -178,-425.434601c-84,-123.2133 -209,-185.982339 -351,-176.683222c-55,3.487169 -99,13.948675 -134,31.38452l-52,26.734961l49,45.333195c92,84.854442 149,209.230132 157,347.554497c16,262.700054 -134,481.229303 -360,525.400109c-171,32.546909 -358,-77.880105 -437,-258.050496c-52,-119.726131 -63,-254.563327 -34,-416.135484c83,-469.605407 434,-804.373618 841,-804.373618c56,0 74,-3.487169 70,-13.948675c-3,-8.136727 -131,-342.904938 -285,-745.091747l-280,-728.818292l234,2.324779l235,3.487169l1030,2685.120024c567,1477.397208 1037,2702.555868 1044,2723.478882l14,37.196468l-233,0l-233,0l-28,-72.068156c-82,-215.04208 -115,-268.512002 -210,-340.580159c-102,-76.717715 -235,-96.478339 -359,-52.307533c-36,12.786286 -67,27.897351 -70,33.709299c-3,4.649558 17,27.897351 43,49.982754c53,46.495585 113,144.136313 137,220.854028c84,277.811119 -74,593.981096 -325,648.613408c-69,15.111065 -113,13.948675 -182,-5.811948z" id="svg_2"/>
  </g>
 </g>
</svg>